<?xml version="1.0" standalone="no"?><!DOCTYPE svg PUBLIC "-//W3C//DTD SVG 1.1//EN" "http://www.w3.org/Graphics/SVG/1.1/DTD/svg11.dtd"><svg t="1562832179422" class="icon" viewBox="0 0 1536 1024" version="1.1" xmlns="http://www.w3.org/2000/svg" p-id="1133" width="300" height="200" xmlns:xlink="http://www.w3.org/1999/xlink"><defs><style type="text/css"></style></defs><path d="M935.696631 859.015195c0-13.025272-9.395991-23.570858-20.968528-23.570858l-293.465985 0c-11.572537 0-20.963414 10.545586-20.963414 23.570858l0 94.279989-209.6274 0 0 70.704067 754.631097 0 0-70.704067-209.605196 0 0-94.279989zm303.719532-859.015195l-942.837315 0c-39.062271 0-70.709056 31.624832-70.709056 70.687102l0 659.971651c0 39.035077 31.647035 70.710803 70.709056 70.710803l942.837315 0c39.062271 0 70.710803-31.675975 70.710803-70.710803l0-659.971651c0-39.064017-31.650279-70.687102-70.712549-70.687102l0.001703 0zm0 707.043164c0 13.001447-10.569411 23.564047-23.572554 23.564047l-895.688464 0c-13.02869 0-23.567465-10.5626-23.567465-23.564047l0-612.807831c0-13.032108 10.538775-23.570858 23.567465-23.570858l895.690959 0c13.003144 0 23.569162 10.537053 23.569162 23.570858l0.001703 612.807831zm-241.465036-45.092903l127.519443 0 0-371.260717-127.519443 0 0 371.260717zm-204.031109 0l127.517697 0 0-485.494208-127.517697 0 0 485.494208zm-382.562071 0l127.519443 0 0-142.792737-127.519443 0 0 142.792737zm178.528717 0l127.521189 0 0-257.054668-127.521189 0 0 257.054668z" p-id="1134" fill="#."></path></svg>
