<?xml version="1.0" standalone="no"?><!DOCTYPE svg PUBLIC "-//W3C//DTD SVG 1.1//EN" "http://www.w3.org/Graphics/SVG/1.1/DTD/svg11.dtd"><svg t="1564546586852" class="icon" viewBox="0 0 1024 1024" version="1.1" xmlns="http://www.w3.org/2000/svg" p-id="2588" xmlns:xlink="http://www.w3.org/1999/xlink" width="200" height="200"><defs><style type="text/css"></style></defs><path d="M530 481.25l75 75c10-12.5 22.5-23.75 36.25-33.75l-82.5-82.5C551.25 456.25 541.25 470 530 481.25zM828.75 320l-81.25 181.25c16.25 2.5 32.5 8.75 46.25 16.25l77.5-175C856.25 338.75 841.25 330 828.75 320zM721.25 746.25c55 0 98.75-43.75 98.75-98.75 0-55-43.75-98.75-98.75-98.75-55 0-98.75 43.75-98.75 98.75C622.5 702.5 667.5 746.25 721.25 746.25zM721.25 598.75c27.5 0 48.75 22.5 48.75 50 0 27.5-22.5 50-48.75 50-27.5 0-48.75-22.5-48.75-50C672.5 620 695 598.75 721.25 598.75zM918.75 302.5c55 0 98.75-43.75 98.75-98.75 0-55-43.75-98.75-98.75-98.75s-98.75 43.75-98.75 98.75C820 257.5 865 302.5 918.75 302.5zM918.75 153.75c27.5 0 48.75 22.5 48.75 50 0 27.5-22.5 50-48.75 50-27.5 0-48.75-22.5-48.75-50C870 176.25 891.25 153.75 918.75 153.75zM301.25 456.25l-105 125c12.5 10 25 22.5 33.75 37.5l105-125C321.25 482.5 310 470 301.25 456.25zM203.75 697.5c0-55-43.75-98.75-98.75-98.75-55 0-98.75 43.75-98.75 98.75 0 55 43.75 98.75 98.75 98.75C160 796.25 203.75 752.5 203.75 697.5zM56.25 697.5c0-27.5 22.5-50 48.75-50s48.75 22.5 48.75 50c0 27.5-22.5 50-48.75 50S56.25 725 56.25 697.5zM943.75 821.25c0 27.5-22.5 50-48.75 50L203.75 871.25c-22.5 0-40-13.75-47.5-33.75-16.25 6.25-33.75 8.75-51.25 8.75 0 41.25 33.75 73.75 73.75 73.75l740 0c41.25 0 73.75-33.75 73.75-73.75l0-513.75c-15 8.75-31.25 15-48.75 17.5L943.75 821.25zM155 227.5c0-27.5 22.5-50 48.75-50l568.75 0c2.5-17.5 8.75-35 17.5-50l-611.25 0c-41.25 0-73.75 33.75-73.75 73.75l0 346.25c17.5 0 33.75 2.5 48.75 8.75L153.75 227.5zM426.25 475c55 0 98.75-43.75 98.75-98.75 0-55-43.75-98.75-98.75-98.75-55 0-98.75 43.75-98.75 98.75C327.5 431.25 371.25 475 426.25 475zM426.25 326.25c27.5 0 48.75 22.5 48.75 50 0 27.5-22.5 50-48.75 50-27.5 0-48.75-22.5-48.75-50C376.25 348.75 398.75 326.25 426.25 326.25z" p-id="2589"></path></svg>