<?xml version="1.0" standalone="no"?><!DOCTYPE svg PUBLIC "-//W3C//DTD SVG 1.1//EN" "http://www.w3.org/Graphics/SVG/1.1/DTD/svg11.dtd"><svg t="1564546689511" class="icon" viewBox="0 0 1024 1024" version="1.1" xmlns="http://www.w3.org/2000/svg" p-id="53025" xmlns:xlink="http://www.w3.org/1999/xlink" width="200" height="200"><defs><style type="text/css"></style></defs><path d="M512 732.8c-32 0-59.2-20-68-51.2-4-12.8-12.8-21.6-25.6-26.4-12.8-4-25.6-1.6-36 6.4-25.6 20-59.2 20-84.8 0.8-26.4-19.2-36-51.2-24.8-80.8 4-12 2.4-25.6-4.8-36-8-10.4-19.2-16-32.8-16-32.8 0.8-59.2-18.4-69.6-48.8-9.6-30.4 0.8-62.4 27.2-80.8 10.4-7.2 16.8-19.2 16.8-32s-6.4-24.8-16.8-32c-26.4-18.4-37.6-49.6-27.2-80.8 9.6-30.4 37.6-49.6 69.6-48.8 12.8 0 24.8-5.6 32.8-16 8-10.4 9.6-24 4.8-36-11.2-30.4-0.8-62.4 24.8-80.8 26.4-19.2 59.2-18.4 84.8 0.8 10.4 8 23.2 10.4 36 6.4s21.6-13.6 25.6-26.4C452.8 24 480 4 512 4s59.2 20 68 51.2c4 12.8 12.8 22.4 25.6 26.4 12 4 25.6 1.6 36-6.4 25.6-20 59.2-20 84.8-0.8 26.4 19.2 36 51.2 24.8 80.8-4 12-2.4 25.6 4.8 36 8 10.4 19.2 16 32.8 16 32-0.8 59.2 18.4 69.6 48.8 9.6 30.4-0.8 62.4-27.2 80.8-10.4 7.2-16.8 19.2-16.8 32s6.4 24.8 16.8 32c26.4 18.4 37.6 49.6 27.2 80.8-9.6 30.4-36.8 49.6-69.6 48.8-12.8 0-24.8 5.6-32.8 16-8 10.4-9.6 24-4.8 36 11.2 30.4 0.8 62.4-24.8 80.8-26.4 19.2-59.2 18.4-84.8-0.8-10.4-8-23.2-10.4-36-6.4-12 4-21.6 13.6-25.6 26.4-8.8 30.4-36 50.4-68 50.4zM406.4 621.6c7.2 0 14.4 0.8 21.6 3.2 22.4 7.2 39.2 24.8 46.4 47.2 6.4 20.8 23.2 28 37.6 28 14.4 0 31.2-7.2 37.6-28 6.4-22.4 24-40 46.4-47.2 22.4-7.2 46.4-3.2 64.8 11.2 16.8 12.8 35.2 8.8 46.4 0.8 11.2-8 20.8-24 13.6-44.8-8-22.4-4-46.4 9.6-65.6 13.6-19.2 36-30.4 59.2-29.6 21.6 0.8 33.6-13.6 38.4-27.2 4-13.6 2.4-32-15.2-44-19.2-13.6-31.2-35.2-31.2-58.4s11.2-45.6 31.2-58.4c17.6-12 19.2-30.4 15.2-44-4-13.6-16.8-27.2-38.4-27.2-23.2 0.8-45.6-10.4-59.2-29.6-13.6-19.2-17.6-43.2-9.6-65.6 7.2-20-2.4-36-13.6-44.8-11.2-8-29.6-12.8-46.4 0.8-18.4 14.4-43.2 18.4-64.8 11.2s-39.2-24.8-46.4-47.2c-6.4-20.8-23.2-28-37.6-28-14.4 0-31.2 7.2-37.6 28-6.4 22.4-24 40-46.4 47.2-22.4 7.2-46.4 3.2-64.8-11.2-16.8-12.8-35.2-8.8-46.4-0.8-11.2 8-20.8 24-13.6 44.8 8 22.4 4 46.4-9.6 65.6-13.6 19.2-36 29.6-59.2 29.6-21.6-0.8-33.6 13.6-38.4 27.2-4 13.6-2.4 32 15.2 44 19.2 13.6 31.2 35.2 31.2 58.4s-11.2 45.6-31.2 58.4c-17.6 12-19.2 30.4-15.2 44 4 13.6 16.8 27.2 38.4 27.2 23.2-0.8 45.6 10.4 59.2 29.6 13.6 19.2 17.6 43.2 9.6 65.6-7.2 20 2.4 36 13.6 44.8 11.2 8 29.6 12.8 46.4-0.8 12.8-9.6 28-14.4 43.2-14.4z" p-id="53026"></path><path d="M342.4 1020c-5.6 0-10.4-3.2-13.6-8l-59.2-97.6-111.2 22.4c-5.6 0.8-12-0.8-16-5.6s-4.8-11.2-2.4-16.8L272 615.2c2.4-6.4 8.8-9.6 16-9.6 6.4 0.8 12.8 4.8 14.4 11.2 4 12 13.6 22.4 26.4 26.4 12 4 24.8 1.6 35.2-6.4 18.4-14.4 43.2-18.4 64.8-11.2 22.4 7.2 39.2 24.8 46.4 47.2 2.4 7.2 5.6 12.8 11.2 17.6 4.8 4.8 6.4 12 4 18.4l-132.8 301.6c-2.4 5.6-8 8.8-13.6 9.6h-1.6z m-64.8-139.2c5.6 0 10.4 3.2 13.6 8l48.8 80.8 116-264c-5.6-7.2-9.6-15.2-12-24-4-12.8-12.8-21.6-25.6-26.4-12.8-4-25.6-1.6-36 6.4-18.4 14.4-42.4 18.4-64 12-11.2-3.2-20.8-9.6-29.6-17.6l-107.2 244.8 92-18.4c1.6-1.6 3.2-1.6 4-1.6zM681.6 1020h-0.8c-5.6 0-11.2-4-13.6-9.6L534.4 708.8c-2.4-6.4-1.6-13.6 4-18.4 4.8-4.8 8.8-10.4 11.2-17.6 6.4-22.4 24-40 46.4-47.2 22.4-7.2 46.4-3.2 64.8 11.2 10.4 8 23.2 10.4 35.2 6.4 12.8-4 22.4-14.4 26.4-26.4 1.6-6.4 8-11.2 14.4-11.2 6.4-0.8 12.8 3.2 16 9.6l132 300.8c2.4 5.6 1.6 12-2.4 16.8-4 4.8-9.6 7.2-16 5.6l-111.2-22.4-59.2 97.6c-3.2 3.2-8.8 6.4-14.4 6.4zM568 705.6l116 264 48.8-80.8c3.2-5.6 10.4-8.8 16.8-7.2l92 18.4-107.2-244.8c-8 8-18.4 14.4-29.6 17.6-22.4 7.2-45.6 3.2-64-12-10.4-8-23.2-10.4-36-6.4-12 4-21.6 13.6-25.6 26.4-1.6 9.6-5.6 17.6-11.2 24.8zM512 580.8c-117.6 0-212.8-95.2-212.8-212.8S394.4 156 512 156c117.6 0 212.8 95.2 212.8 212.8S629.6 580.8 512 580.8z m0-408.8c-108.8 0-196.8 88-196.8 196.8 0 108.8 88 196.8 196.8 196.8 108.8 0 196.8-88 196.8-196.8 0-108.8-88-196.8-196.8-196.8z" p-id="53027"></path><path d="M512 512.8C432 512.8 367.2 448 367.2 368c0-79.2 64.8-144 144.8-144 80 0 144.8 64.8 144.8 144.8 0 79.2-64.8 144-144.8 144zM512 240c-71.2 0-128.8 57.6-128.8 128.8s57.6 128 128.8 128c71.2 0 128.8-57.6 128.8-128.8S583.2 240 512 240z" p-id="53028"></path></svg>