<?xml version="1.0" standalone="no"?><!DOCTYPE svg PUBLIC "-//W3C//DTD SVG 1.1//EN" "http://www.w3.org/Graphics/SVG/1.1/DTD/svg11.dtd"><svg t="1562835322032" class="icon" viewBox="0 0 1024 1024" version="1.1" xmlns="http://www.w3.org/2000/svg" p-id="930" xmlns:xlink="http://www.w3.org/1999/xlink" width="200" height="200"><defs><style type="text/css"></style></defs><path d="M900.0448 893.95712c-1.4848 44.0832-35.54816 76.8-79.60576 76.8H316.41088c-41.13408 0-102.5536 10.11712-136.63744-18.01216-36.16256-29.84448-29.63456-96.65536-32.29696-139.41248l-14.54592-233.25696-13.568-217.5488c-2.69312-43.1616-2.67776-82.34496 4.2752-125.59872 7.09632-44.11904 17.10592-89.72288 36.48-130.2272 8.13056-16.99328 21.26336-42.71616 42.69568-42.71616h592.36864c37.58592 0 71.8848-8.23808 95.0272 27.76064 22.93248 35.68128 31.24224 81.13152 37.93408 122.31168 5.12 31.47264 10.17344 66.08384 8.18176 98.09408l-23.0144 369.11104-13.26592 212.69504c-2.05312 32.98816 49.15712 32.78848 51.2 0l22.71232-364.22656c7.23968-116.10112 21.51936-229.83168 0.83456-345.216-11.56096-64.48128-40.12032-171.7248-122.98752-171.7248H270.0544c-34.816 0-81.64864-7.52128-111.67744 14.0288-33.5872 24.10496-50.05824 66.5344-62.5152 104.36608-14.21824 43.17696-21.9392 88.48384-27.392 133.50912-4.81792 39.77216-1.57696 77.52192 0.91136 117.34016l14.2592 228.64896 13.93664 223.41632c3.49184 55.9872 1.33632 112.9472 45.99808 154.8544 41.92256 39.33696 98.90816 33.00352 151.48032 33.00352h528.19456c71.38304 0 125.65504-58.43968 128-128 1.11104-33.03936-50.09408-32.92672-51.20512 0z" p-id="931"></path><path d="M827.83232 865.61792c-1.8688 27.8016-27.1616 25.6-47.0528 25.6H276.51072c-18.22208 0-37.51424-3.81952-37.51424-27.35616v-53.89824-418.34496c0-18.5856 6.4512-35.3792 28.672-35.3792H802.176c27.82208 0 25.66656 27.93984 25.66656 46.9504v425.64096c-0.01024 12.2624-0.01024 24.52992-0.01024 36.7872 0 33.01376 51.2 33.01376 51.2 0v-381.8496-82.7904c0-24.55552-0.70144-48.6912-18.16576-68.5312-33.99168-38.61504-98.2784-27.41248-144.55808-27.41248H283.93472c-22.75328 0-43.52512 0.64-63.54944 14.16192-26.19904 17.69472-32.59392 46.52032-32.59392 75.81696v469.9648c0 42.74688 35.23072 77.44 77.81376 77.44h536.6272c43.80672 0 73.99936-35.20512 76.8-76.8 2.21696-32.9728-48.9984-32.75776-51.2 0zM214.84032 240.29696h625.54112c33.01376 0 33.01376-51.2 0-51.2H214.84032c-33.01888 0-33.01888 51.2 0 51.2zM828.85632 153.472c33.01376 0 33.01376-51.2 0-51.2s-33.01376 51.2 0 51.2zM755.2 153.472c33.01376 0 33.01376-51.2 0-51.2s-33.01376 51.2 0 51.2zM671.05792 153.472c33.01376 0 33.01376-51.2 0-51.2s-33.01376 51.2 0 51.2z" p-id="932"></path></svg>