<?xml version="1.0" standalone="no"?><!DOCTYPE svg PUBLIC "-//W3C//DTD SVG 1.1//EN" "http://www.w3.org/Graphics/SVG/1.1/DTD/svg11.dtd"><svg t="1564471006429" class="icon" viewBox="0 0 1024 1024" version="1.1" xmlns="http://www.w3.org/2000/svg" p-id="4407" xmlns:xlink="http://www.w3.org/1999/xlink" width="200" height="200"><defs><style type="text/css"></style></defs><path d="M511.744128 287.6002l45.033483 91.090455 11.770115 24.051974 26.610695 4.093953 100.301849 14.328835-72.667666 70.62069-19.446277 18.934533 4.605697 26.610694 16.887556 99.790105-89.555222-47.080459-24.051974-12.28186-24.051974 12.28186-89.555223 47.080459L414.512744 537.331334l4.605697-26.610694-19.446277-18.934533-71.644178-70.62069 100.301849-14.328835 26.610695-4.093953 11.770115-24.051974 45.033483-91.090455m0-115.654173L421.165417 355.662169l-202.650674 29.681159 146.870564 143.288356-34.7986 202.138931 181.669165-95.184408 181.669165 95.184408-34.7986-202.138931 146.870564-143.288356-202.650674-29.681159L511.744128 171.946027z" p-id="4408"></path><path d="M919.604198 644.797601c27.634183-58.850575 43.498251-124.353823 43.498251-193.43928C963.102449 202.138931 760.963518 0 511.744128 0S60.385807 202.138931 60.385807 451.358321c0 75.226387 18.422789 145.847076 50.662669 208.27986L0.511744 894.528736l175.016492-8.187906 106.954523 137.65917 71.132433-149.941029c49.127436 18.422789 102.348826 28.657671 158.128936 28.657671 59.874063 0 116.677661-11.770115 168.875562-32.751625l60.897551 151.988006 109.0015-139.706146 173.481259 8.187906-104.395802-245.637182zM271.736132 926.768616L199.58021 834.142929l-116.677661 5.117441L143.288356 711.324338c41.963018 59.362319 98.254873 108.489755 163.758121 141.753123l-35.310345 73.691155z m240.007996-75.226387c-220.561719 0-400.183908-179.622189-400.183908-400.183908S291.182409 51.174413 511.744128 51.174413s400.183908 179.622189 400.183908 400.183908-179.622189 400.183908-400.183908 400.183908z m314.722639-22.004998l-70.62069 90.578711-29.169415-72.155922c64.991504-35.310345 120.25987-85.973013 160.687656-147.382309l57.315342 134.588706-118.212893-5.629186z" p-id="4409"></path></svg>