<?xml version="1.0" standalone="no"?><!DOCTYPE svg PUBLIC "-//W3C//DTD SVG 1.1//EN" "http://www.w3.org/Graphics/SVG/1.1/DTD/svg11.dtd"><svg t="1564472525514" class="icon" viewBox="0 0 1093 1024" version="1.1" xmlns="http://www.w3.org/2000/svg" p-id="21535" xmlns:xlink="http://www.w3.org/1999/xlink" width="213.4765625" height="200"><defs><style type="text/css"></style></defs><path d="M1074.780345 248.695421a33.974784 33.974784 0 0 0-34.65428-4.756469L805.020557 344.504313 612.043782 176.668879a95.129396 95.129396 0 0 0 37.372263-74.744526 101.924353 101.924353 0 0 0-203.848706 0A95.129396 95.129396 0 0 0 476.144645 176.668879L283.16787 344.504313 48.062362 244.618447a33.974784 33.974784 0 0 0-47.564698 36.692767l127.745189 714.829463a33.974784 33.974784 0 0 0 33.295289 27.859323h764.432647a33.974784 33.974784 0 0 0 33.295289-27.859323L1087.690763 281.311214a33.974784 33.974784 0 0 0-12.910418-32.615793zM544.094213 72.706038a31.936297 31.936297 0 0 1 33.974785 29.218315 34.65428 34.65428 0 0 1-67.949569 0A31.936297 31.936297 0 0 1 544.094213 72.706038zM190.076961 956.050431l-21.743862-122.309223h751.522229l-21.743862 122.309223z m741.329794-190.258792H156.102176L79.319164 331.593895l197.053749 84.936961A33.295289 33.295289 0 0 0 311.706689 412.453882L544.094213 208.605176l232.387525 203.848706a33.974784 33.974784 0 0 0 35.333776 5.435965l197.053749-84.93696z" fill="" p-id="21536"></path></svg>