<?xml version="1.0" standalone="no"?><!DOCTYPE svg PUBLIC "-//W3C//DTD SVG 1.1//EN" "http://www.w3.org/Graphics/SVG/1.1/DTD/svg11.dtd"><svg t="1564472155699" class="icon" viewBox="0 0 1024 1024" version="1.1" xmlns="http://www.w3.org/2000/svg" p-id="16214" xmlns:xlink="http://www.w3.org/1999/xlink" width="200" height="200"><defs><style type="text/css"></style></defs><path d="M678.589823 73.118152l193.150705 204.967822c3.681848 3.84046 5.522773 8.907863 5.522773 13.820745v574.533094c0 29.324827-7.828277 51.894824-23.338498 67.864508-15.656554 16.122157-37.925699 24.103929-66.943534 24.103929h-549.964584c-29.017836 0-51.280841-7.981772-66.943535-24.103929-15.504081-15.969685-23.337475-38.539681-23.337474-67.864508V157.560187c0-62.183123 30.250917-92.735916 90.434504-91.814942h0.152473v-0.153495c0.460487 0 0.91995 0 1.533933 0.153495h424.065427v-0.153495a20.058808 20.058808 0 0 1 15.66781 7.526402zM836.73534 299.889515L654.174809 106.124827h-415.318223c-0.767478 0-1.381461 0.153496-2.146893 0-32.85932-0.459464-49.44094 16.736139-49.44094 51.43536v708.880649c0 18.423568 3.992933 31.625215 11.82121 39.613127 7.526402 7.828277 20.270632 11.822233 37.926722 11.822233H786.982292c17.657113 0 30.404413-3.992933 37.926722-11.822233 7.827253-7.987912 11.827349-21.189559 11.827349-39.613127V299.889515zM237.17018 65.745245h0.152473" p-id="16215"></path><path d="M658.014246 65.59175c-11.213367 0-20.415941 9.060335-20.415941 20.269608 0 10.901259 8.748227 19.804005 19.495991 20.263469l-5.987353-6.139825 6.907303-6.601335v12.742183h-0.91995l179.641044 186.855339c0.454347 10.747764 9.36221 19.190023 20.259376 19.190023 11.213367 0 20.269609-9.055218 20.269608-20.264493v-7.060798c0-5.067402-1.841947-10.134804-5.681384-13.974242l-14.588224 13.974242 14.588224-13.974242-190.231219-197.907023c-3.84046-4.454443-9.36221-7.37393-15.657577-7.37393h-7.679898z m191.616773 226.314969l-7.214294 7.061822 7.214294-7.061822H836.73534v1.07447l5.681385 5.987352h-0.158613c7.827253 7.981772 20.723956 8.288764 28.711868 0.460487 2.306528-2.147915 3.987816-4.760411 5.066379-7.522309h-26.40534zM674.591774 390.322996c10.906376 0 19.655626-9.060335 19.655626-20.423104 0-11.20825-8.749251-20.263469-19.655626-20.263469H347.407667c-10.900236 0-19.649486 9.056242-19.649487 20.263469 0 11.362769 8.749251 20.423104 19.649487 20.423104h327.184107z" p-id="16216"></path><path d="M853.005876 308.642859c11.204157 0 20.270632-8.907863 20.270632-19.809122 0-11.055778-9.065451-19.957501-20.270632-19.957501H725.720142c-3.830227 0 0.772595 0.153496-1.841947 0.153496-17.655067-0.305968-30.392133-4.299924-38.073054-11.82121-7.679898-7.526402-11.520358-19.962617-11.520359-37.005748V85.860335c0-10.901259-9.056242-19.809122-20.258352-19.809122-11.21439 0-20.269609 8.907863-20.269609 19.809122v132.348019h0.148379c-0.148379 3.687988-0.148379-0.612959-0.148379 1.99442 0 27.94439 7.827253 49.593412 23.336452 64.949115 15.350586 15.19709 37.460095 23.030483 66.171963 23.49097H853.005876zM674.591774 532.345333c10.906376 0 19.655626-9.060335 19.655626-20.269608 0-11.361746-8.749251-20.416964-19.655626-20.416965H347.407667c-10.900236 0-19.649486 9.055218-19.649487 20.416965 0 11.20825 8.749251 20.269609 19.649487 20.269608h327.184107zM674.591774 674.362553c10.906376 0 19.655626-9.055218 19.655626-20.263468 0-11.362769-8.749251-20.423104-19.655626-20.423105H347.407667c-10.900236 0-19.649486 9.060335-19.649487 20.423105 0 11.20825 8.749251 20.263469 19.649487 20.263468h327.184107zM674.591774 816.385914c10.906376 0 19.655626-9.056242 19.655626-20.264493s-8.749251-20.423104-19.655626-20.423104H347.407667c-10.900236 0-19.649486 9.214854-19.649487 20.423104s8.749251 20.264492 19.649487 20.264493h327.184107z" p-id="16217"></path></svg>