<?xml version="1.0" standalone="no"?><!DOCTYPE svg PUBLIC "-//W3C//DTD SVG 1.1//EN" "http://www.w3.org/Graphics/SVG/1.1/DTD/svg11.dtd"><svg t="1564471618110" class="icon" viewBox="0 0 1024 1024" version="1.1" xmlns="http://www.w3.org/2000/svg" p-id="4731" xmlns:xlink="http://www.w3.org/1999/xlink" width="200" height="200"><defs><style type="text/css"></style></defs><path d="M602.88 629.333333a25.173333 25.173333 0 0 1 26.453333 26.88v106.666667a26.88 26.88 0 0 1-53.333333 0v-106.666667a25.173333 25.173333 0 0 1 26.88-26.88zM245.333333 512a19.626667 19.626667 0 0 0 16.213334-5.546667l175.786666-170.666666L533.333333 426.666667a26.026667 26.026667 0 0 0 37.546667 0l165.12-160V298.666667a42.666667 42.666667 0 0 0 10.666667 21.333333 27.306667 27.306667 0 0 0 21.333333 10.666667 25.173333 25.173333 0 0 0 26.88-26.88V208.213333c0-21.333333-5.546667-26.88-21.333333-26.88h-106.666667a25.173333 25.173333 0 0 0-26.88 26.88 25.173333 25.173333 0 0 0 26.88 26.453334h26.453333L554.666667 373.333333l-96-90.453333a25.6 25.6 0 0 0-37.12 0L229.12 469.333333a25.6 25.6 0 0 0 0 37.12c0 5.546667 10.666667 5.546667 16.213333 5.546667z m527.786667 10.666667a25.173333 25.173333 0 0 0-26.453333 26.88v213.333333a26.88 26.88 0 0 0 53.333333 0v-213.333333c-5.546667-16.213333-15.786667-26.88-26.88-26.88z m-367.786667-26.88v266.666666a26.88 26.88 0 1 0 53.333334 0v-266.666666a26.88 26.88 0 0 0-53.333334 0z m506.88 389.546666H165.546667a25.173333 25.173333 0 0 1-26.88-26.88V112.213333A25.173333 25.173333 0 0 0 112.213333 85.333333a25.173333 25.173333 0 0 0-26.88 26.88v773.12A50.346667 50.346667 0 0 0 138.666667 938.666667h773.546666a26.88 26.88 0 0 0 0-53.333334zM234.666667 602.88v160a25.173333 25.173333 0 0 0 26.88 26.453333 25.173333 25.173333 0 0 0 26.453333-26.453333v-160a25.173333 25.173333 0 0 0-26.453333-26.88 25.173333 25.173333 0 0 0-26.88 26.88z" p-id="4732"></path></svg>