<?xml version="1.0" standalone="no"?><!DOCTYPE svg PUBLIC "-//W3C//DTD SVG 1.1//EN" "http://www.w3.org/Graphics/SVG/1.1/DTD/svg11.dtd"><svg t="1564470782840" class="icon" viewBox="0 0 1024 1024" version="1.1" xmlns="http://www.w3.org/2000/svg" p-id="1626" xmlns:xlink="http://www.w3.org/1999/xlink" width="200" height="200"><defs><style type="text/css"></style></defs><path d="M544.6 708.4c-13.8 0-25-11.2-25-25V450.6c0-27.9 14.4-53 38.5-67.1 24.1-14.1 53-14.4 77.3-0.7l2.4 1.3c21.3 12 35.6 32.8 38.9 57.1 3.4 24.3-4.7 48.2-22 65.6l-85 85v91.5c-0.1 13.9-11.3 25.1-25.1 25.1z m52.9-285.6c-6.5 0-11.6 2.4-14.2 3.9-4.1 2.4-13.7 9.6-13.7 23.9v70.5l49.6-49.6c6.2-6.2 9.1-14.7 7.9-23.4-1.2-8.7-6.3-16.1-13.9-20.4l-2.4-1.3c-4.8-2.7-9.3-3.6-13.3-3.6z" fill="#C4C4C4" p-id="1627"></path><path d="M544.3 708.4c-13.8 0-25-11.2-25-25v-91.5l-85-85c-17.4-17.3-25.4-41.2-22.1-65.5 3.3-24.4 17.6-45.3 39-57.3l2.2-1.3c24.4-13.7 53.3-13.4 77.3 0.7 24.1 14.1 38.5 39.2 38.5 67.1v232.8c0.1 13.8-11.1 25-24.9 25z m-52.9-285.6c-4 0-8.6 0.9-13.4 3.6l-2.2 1.3c-7.8 4.3-12.8 11.8-14 20.5-1.2 8.7 1.7 17.1 7.9 23.3l49.7 49.7v-70.5c0-14.3-9.6-21.5-13.7-23.9-2.7-1.6-7.8-4-14.3-4z" fill="#C4C4C4" p-id="1628"></path><path d="M400.3 711.6c-5.4 0-10.9-1.7-15.4-5.4-32.5-25.6-59.5-59.2-78-97.2-19.3-39.7-29.1-82.5-29.1-127.3 0-74.6 27.6-144.8 77.7-197.7 50.5-53.3 117.6-82.6 189.2-82.6s138.7 29.3 189.2 82.6c50.1 52.9 77.7 123.1 77.7 197.7 0 85.1-36.1 164.6-99.1 218.1-10.5 8.9-26.3 7.7-35.2-2.9-8.9-10.5-7.7-26.3 2.9-35.2 51.8-44 81.5-109.6 81.5-179.9 0-127-97.3-230.3-216.9-230.3-119.6 0-216.9 103.3-216.9 230.3 0 72.6 32.9 141.9 88 185.2 10.9 8.5 12.7 24.3 4.2 35.1-5.1 6.3-12.4 9.5-19.8 9.5zM576.4 925.4h-63.7c-22.6 0-42.3-14.4-49-36l-25-75.4h211.9l-25.2 75.5c-6.8 21.5-26.4 35.9-49 35.9zM507.9 864l3.5 10.5c0.2 0.6 0.7 0.9 1.3 0.9h63.7c0.6 0 1.1-0.3 1.3-0.9l0.2-0.6 3.3-9.9h-73.3z" fill="" p-id="1629"></path><path d="M646.8 855.5H442.4c-13.8 0-25-11.2-25-25s11.2-25 25-25h204.4c13.8 0 25 11.2 25 25s-11.2 25-25 25zM686.7 713.8H402.5c-13.8 0-25-11.2-25-25s11.2-25 25-25h284.2c13.8 0 25 11.2 25 25s-11.2 25-25 25z" fill="" p-id="1630"></path><path d="M663.7 783.3H425c-13.8 0-25-11.2-25-25s11.2-25 25-25h238.7c13.8 0 25 11.2 25 25s-11.2 25-25 25z" fill="" p-id="1631"></path><path d="M544.6 176.3c-13.8 0-25-11.2-25-25V89.5c0-13.8 11.2-25 25-25s25 11.2 25 25v61.8c0 13.8-11.2 25-25 25z" fill="" p-id="1632"></path><path d="M947.3 532.6h-61.9c-13.8 0-25-11.2-25-25s11.2-25 25-25h61.9c13.8 0 25 11.2 25 25s-11.2 25-25 25z" fill="" p-id="1633"></path><path d="M799.9 279.1c-6.4 0-12.8-2.4-17.7-7.3-9.8-9.8-9.7-25.6 0-35.4l43.8-43.7c9.8-9.8 25.6-9.7 35.4 0 9.8 9.8 9.7 25.6 0 35.4l-43.8 43.7c-4.9 4.9-11.3 7.3-17.7 7.3z" fill="" p-id="1634"></path><path d="M289.2 279.1c-6.4 0-12.8-2.4-17.7-7.3l-43.7-43.7c-9.8-9.8-9.8-25.6 0-35.4 9.8-9.8 25.6-9.8 35.4 0l43.7 43.7c9.8 9.8 9.8 25.6 0 35.4-4.9 4.9-11.3 7.3-17.7 7.3z" fill="" p-id="1635"></path><path d="M205.4 532.6h-61.9c-13.8 0-25-11.2-25-25s11.2-25 25-25h61.9c13.8 0 25 11.2 25 25s-11.2 25-25 25z" fill="" p-id="1636"></path></svg>