<?xml version="1.0" standalone="no"?><!DOCTYPE svg PUBLIC "-//W3C//DTD SVG 1.1//EN" "http://www.w3.org/Graphics/SVG/1.1/DTD/svg11.dtd"><svg t="1564471990792" class="icon" viewBox="0 0 1024 1024" version="1.1" xmlns="http://www.w3.org/2000/svg" p-id="11618" xmlns:xlink="http://www.w3.org/1999/xlink" width="200" height="200"><defs><style type="text/css"></style></defs><path d="M653.733108 469.145315a255.988321 255.988321 0 1 0-283.507065 0 412.781167 412.781167 0 0 0-306.546014 383.982481C64.32 967.682569 288.30978 1024 512.299561 1024s447.979561-56.317431 447.979561-168.952292a412.781167 412.781167 0 0 0-306.546014-385.902393z m-85.756087 334.064759l-55.67746 55.037488-55.67746-55.677459L512.299561 616.3386zM320.308321 256.035038a191.99124 191.99124 0 1 1 191.99124 191.991241 191.99124 191.99124 0 0 1-191.99124-191.991241z m191.99124 703.967882c-234.229313 0-383.982481-63.99708-383.982481-104.955212A360.943532 360.943532 0 0 1 475.821225 512.023359l-85.756087 291.186715a31.99854 31.99854 0 0 0 8.31962 31.99854l91.515825 91.515824a31.99854 31.99854 0 0 0 45.437927 0L626.854334 832.00876a31.99854 31.99854 0 0 0 8.319621-31.99854L548.777897 512.023359A360.943532 360.943532 0 0 1 896.282042 855.047708C896.282042 896.00584 746.528874 960.00292 512.299561 960.00292z" fill="" p-id="11619"></path></svg>