<?xml version="1.0" standalone="no"?><!DOCTYPE svg PUBLIC "-//W3C//DTD SVG 1.1//EN" "http://www.w3.org/Graphics/SVG/1.1/DTD/svg11.dtd"><svg t="1564472604107" class="icon" viewBox="0 0 1024 1024" version="1.1" xmlns="http://www.w3.org/2000/svg" p-id="22038" xmlns:xlink="http://www.w3.org/1999/xlink" width="200" height="200"><defs><style type="text/css"></style></defs><path d="M835.678914 65.667605l-679.772075 0c-50.301639 0-91.240027 40.909735-91.240027 91.213421l0 708.526979c0 50.301639 40.939411 91.206258 91.240027 91.206258l708.464557 0c50.302663 0 91.240027-40.898479 91.240027-91.206258l0-708.526979c0-50.304709-40.937364-91.213421-91.240027-91.213421l0 0L835.678914 65.667605zM911.064858 852.670913c0.273223 25.317619-17.120936 55.888891-44.547589 59.397808L168.610162 912.068721c-25.981744 0-59.396785-18.571984-59.396785-44.548612L109.213377 154.763806c0-25.984814 48.273447-44.548612 74.245981-44.548612l668.208714 0c25.984814 0 59.396785 33.411971 59.396785 59.397808L911.064858 852.670913 911.064858 852.670913zM762.582105 239.962234c-23.500227 0-42.592051 19.122523-42.592051 42.621726 0 12.403494 5.582135 23.907503 15.851013 32.397874l1.933025 1.579985-0.410346 2.479471c-17.930371 112.39279-113.515357 193.992249-227.221048 193.992249-113.708761 0-209.30091-81.598436-227.214908-194.003506l-0.414439-2.485611 1.925862-1.579985c10.270924-8.476045 15.851013-19.993357 15.851013-32.398898 0-23.499204-19.086707-42.61968-42.590004-42.61968-23.563672 0-42.659589 19.1215-42.659589 42.61968 0 14.789844 8.061606 28.322046 21.568225 36.251645l1.862417 1.037632 0.277316 2.13564c19.432585 134.055159 136.108934 240.552681 271.390014 240.552681 135.275963 0 251.959475-106.497523 271.394107-240.536308l0.264013-2.139733 1.860371-1.033539c13.510712-7.92039 21.572318-21.461801 21.572318-36.253692 0-23.493064-19.083637-42.618657-42.649356-42.618657l0 0L762.580059 239.962234zM762.582105 239.962234" p-id="22039"></path></svg>